<svg width="22" height="26" viewBox="0 0 22 26" fill="none" xmlns="http://www.w3.org/2000/svg">
<path d="M11 0C8.08369 0.00310315 5.28779 1.0494 3.22564 2.90937C1.16348 4.76934 0.00345217 7.29112 1.17029e-05 9.92151C-0.00348119 12.0711 0.774992 14.1623 2.21601 15.8744C2.21601 15.8744 2.51601 16.2307 2.56501 16.2821L11 25.2548L19.439 16.2776C19.483 16.2298 19.784 15.8744 19.784 15.8744L19.785 15.8717C21.2253 14.1604 22.0034 12.0701 22 9.92151C21.9966 7.29112 20.8365 4.76934 18.7744 2.90937C16.7122 1.0494 13.9163 0.00310315 11 0ZM11 13.5293C10.2089 13.5293 9.43553 13.3177 8.77773 12.9213C8.11993 12.5249 7.60724 11.9614 7.30449 11.3022C7.00174 10.6429 6.92253 9.91751 7.07687 9.21766C7.23121 8.51781 7.61217 7.87496 8.17158 7.3704C8.73099 6.86583 9.44373 6.52222 10.2197 6.38301C10.9956 6.2438 11.7998 6.31525 12.5307 6.58832C13.2616 6.86139 13.8864 7.32381 14.3259 7.91711C14.7654 8.51042 15 9.20795 15 9.92151C14.9987 10.878 14.5768 11.795 13.827 12.4713C13.0771 13.1477 12.0605 13.5281 11 13.5293Z" fill="black"/>
</svg>
